<?xml version="1.0" encoding="utf-8"?>
<!-- Generator: Adobe Illustrator 22.1.0, SVG Export Plug-In . SVG Version: 6.00 Build 0)  -->
<svg version="1.1" xmlns="http://www.w3.org/2000/svg" xmlns:xlink="http://www.w3.org/1999/xlink" x="0px" y="0px"
	 viewBox="0 0 200 200" style="enable-background:new 0 0 200 200;" xml:space="preserve">
<style type="text/css">
	.st0{fill:#231F20;}
	.st1{fill:#FFFFFF;stroke:#231F20;stroke-width:0.5;stroke-miterlimit:10;}
	.st2{display:none;}
	.st3{display:inline;}
	.st4{fill:#FFFFFF;stroke:#231F20;stroke-miterlimit:10;}
</style>
<g id="Outer_Circle">
</g>
<g id="Inner_Circle">
</g>
<g id="Intersects">
	<path class="st0" d="M100,100l52.3-52.3c-13.4-13.4-32-21.8-52.4-21.8C59,25.9,25.8,59.2,25.8,100s33.2,74.1,74.1,74.1
		S174,140.8,174,100c0,0,0,0,0,0H100z"/>
</g>
<g id="Silverware">
	<path class="st1" d="M87.9,70.3c0,0-0.5-11.4-0.8-15c-0.4-3.7-0.9-15.2-0.9-15.2H85v20c0,0.7-0.6,1.2-1.2,1.2s-1.2-0.6-1.2-1.2
		l-0.5-20l-1.4,0l-0.5,20c0,0.6,0,1.2-1.1,1.2s-1.2-0.5-1.2-1.2c0-0.6,0-20,0-20l-1.6,0l-0.3,20c0,0.7-0.6,1.2-1.2,1.2
		c-0.7,0-1.2-0.6-1.2-1.2v-20h-1.1c0,0-0.6,11.4-0.9,15.2c-0.4,4.3-0.8,15-0.8,15c0,4.5,2.3,8.2,6.4,8.8l-3.5,75.6c0,0-0.8,5,5.1,5
		c5.8,0,5.1-5,5.1-5l-2.2-75.7C85.6,78.4,87.9,74.8,87.9,70.3z"/>
	<path class="st1" d="M132.7,61c0-10.4-8-20.8-12.2-20.8c-3.8,0-12.2,10.5-12.2,20.8c0,9.2,4.3,16.9,10.1,18.5l-3.5,75.1
		c0,0-0.8,5.2,5.1,5.2c5.8,0,5.1-5.2,5.1-5.2l-2.2-75.1C128.4,77.8,132.7,70.2,132.7,61z"/>
	<path class="st1" d="M105.4,156.5l-2.2-49.8c0.1-0.3,0.2-0.6,0.2-1.1c0-6.3,0-20.4,0-34.3c0-39.1-0.7-39.3-3.2-36.3
		c-3,3.6-6.9,16.3-6.9,36.3c0,17.5,2.4,32.1,5.5,35.6l-3.5,49.7c0,0-0.8,3.3,5.1,3.3C106.1,159.8,105.4,156.5,105.4,156.5z"/>
</g>
<g id="Layer_4" class="st2">
	
		<text transform="matrix(0.9136 0 0 1 -193.5005 169.2643)" class="st3" style="font-family:'surrounding-reg'; font-size:175.1287px;">G</text>
</g>
<g id="Layer_5">
	<path class="st4" d="M192.9,100h-62.7v17.3h43.2c-7.9,33.4-37.9,58.3-73.6,58.3c-41.7,0-75.6-33.9-75.6-75.6
		c0-41.7,33.9-75.6,75.6-75.6c21,0,40,8.6,53.7,22.4l12.4-12.4c-16.9-17-40.2-27.5-66.1-27.5C48.5,6.9,6.8,48.6,6.8,100
		c0,51.4,41.7,93.1,93.1,93.1c51.4,0,93-41.6,93.1-93h0L192.9,100z"/>
</g>
</svg>
