<svg id="Dark" xmlns="http://www.w3.org/2000/svg" viewBox="0 0 729.07 708.26"><defs><style>.cls-1{fill:#0071bc;}.cls-2{fill:#333;}</style></defs><title>Logo Square SVG</title><path class="cls-1" d="M244.5,429.94H170.93c-19.7,0-35.47-16.56-35.47-35.67V322.93c0-19.1,15.77-34.39,35.47-34.39H244.5c19.7,0,36.78,15.29,36.78,34.39v71.34C281.28,413.38,264.2,429.94,244.5,429.94Z" transform="translate(-135.46 -145.87)"/><path class="cls-2" d="M681.94,854.13h-511c-19.7,0-35.47-15.29-35.47-35.67V748.4c0-20.38,15.77-35.67,35.47-35.67h511c21,0,36.78,15.29,36.78,35.67v70.06C718.72,838.84,703,854.13,681.94,854.13Z" transform="translate(-135.46 -145.87)"/><path class="cls-2" d="M827.75,288.54h-511c-19.71,0-35.47-16.56-35.47-35.67V181.54c0-19.11,15.76-35.67,35.47-35.67h511c21,0,36.79,16.56,36.79,35.67v71.33C864.54,272,848.77,288.54,827.75,288.54Z" transform="translate(-135.46 -145.87)"/><path class="cls-2" d="M681.94,571.34H316.75c-19.71,0-35.47-15.29-35.47-35.67V464.33c0-19.11,15.76-34.39,35.47-34.39H681.94c21,0,36.78,15.28,36.78,34.39v71.34C718.72,556.05,703,571.34,681.94,571.34Z" transform="translate(-135.46 -145.87)"/><path class="cls-1" d="M827.75,712.73H755.5c-21,0-36.78-15.28-36.78-35.66V607c0-20.38,15.77-35.66,36.78-35.66h72.25c21,0,36.79,15.28,36.79,35.66v70.07C864.54,697.45,848.77,712.73,827.75,712.73Z" transform="translate(-135.46 -145.87)"/></svg>